<svg width="30" height="30" viewBox="0 0 30 30" fill="none" xmlns="http://www.w3.org/2000/svg">
<path d="M21.4132 10.0135C23.3331 12.6286 24.2813 15.5784 23.9268 18.9743C23.9253 18.9886 23.9172 19.0018 23.9045 19.0105C22.4506 19.9995 21.0419 20.5998 19.653 20.9978C19.6422 21.0009 19.6306 21.0007 19.6199 20.9973C19.6092 20.994 19.5999 20.9876 19.5933 20.9791C19.2724 20.5655 18.9809 20.1295 18.7255 19.6715C18.7108 19.6446 18.7242 19.6121 18.7544 19.6015C19.2174 19.4398 19.6577 19.2461 20.0812 19.0168C20.1146 18.9987 20.1167 18.9544 20.0859 18.9331C19.996 18.8713 19.907 18.8063 19.8217 18.7414C19.8058 18.7294 19.7843 18.727 19.7663 18.7351C17.0167 19.9113 14.0048 19.9113 11.2227 18.7351C11.2047 18.7276 11.1832 18.7302 11.1677 18.742C11.0827 18.8069 10.9934 18.8713 10.9044 18.9331C10.8736 18.9544 10.8761 18.9987 10.9097 19.0168C11.3332 19.2418 11.7735 19.4398 12.2359 19.6023C12.2659 19.6129 12.2801 19.6446 12.2653 19.6715C12.0154 20.13 11.7238 20.5661 11.397 20.9797C11.3827 20.9964 11.3594 21.0041 11.3373 20.9978C9.95496 20.5998 8.5463 19.9995 7.09237 19.0105C7.08026 19.0018 7.07155 18.988 7.07027 18.9737C6.77405 16.0363 7.37776 13.0621 9.58159 10.0129C9.58691 10.0048 9.59498 9.99853 9.60433 9.99479C10.6887 9.53374 11.8505 9.19454 13.0647 9.00083C13.0868 8.99768 13.1089 9.00713 13.1204 9.02524C13.2704 9.27132 13.4419 9.58689 13.5579 9.84478C14.8378 9.66366 16.1376 9.66366 17.4443 9.84478C17.5603 9.5924 17.7259 9.27132 17.8752 9.02524C17.8806 9.01626 17.8888 9.00906 17.8988 9.00467C17.9088 9.00029 17.92 8.99894 17.9309 9.00083C19.1458 9.19513 20.3075 9.53433 21.391 9.99479C21.4006 9.99853 21.4085 10.0048 21.4132 10.0135ZM14.2086 15.5985C14.222 14.7301 13.5386 14.0116 12.6807 14.0116C11.8298 14.0116 11.153 14.7238 11.153 15.5985C11.153 16.4729 11.8432 17.1852 12.6807 17.1852C13.5318 17.1852 14.2086 16.4729 14.2086 15.5985ZM19.8572 15.5985C19.8706 14.7301 19.1872 14.0116 18.3296 14.0116C17.4785 14.0116 16.8017 14.7238 16.8017 15.5985C16.8017 16.4729 17.4919 17.1852 18.3296 17.1852C19.1872 17.1852 19.8572 16.4729 19.8572 15.5985Z" fill="#F5F5F7"/>
</svg>
