<svg width="24" height="23" viewBox="0 0 24 23" fill="none" xmlns="http://www.w3.org/2000/svg">
<path fill-rule="evenodd" clip-rule="evenodd" d="M13.9972 8.83907C13.9436 8.78414 13.8942 8.72495 13.8497 8.66201C13.7385 8.5049 13.6593 8.32742 13.6167 8.13972C13.5306 7.76063 13.5987 7.36288 13.8059 7.03397C14.0131 6.70506 14.3425 6.47193 14.7216 6.38586C14.9093 6.34325 15.1035 6.33803 15.2932 6.37049C15.483 6.40295 15.6644 6.47246 15.8273 6.57506L19.6987 9.00391C19.7193 9.01678 19.7395 9.03016 19.7594 9.04401C19.7767 9.05465 19.794 9.06538 19.8113 9.0762C21.1281 9.90162 22.063 11.2163 22.4105 12.7311C22.7579 14.2458 22.4894 15.8366 21.664 17.1534C20.8385 18.4702 19.5238 19.4051 18.0091 19.7526C16.4943 20.1 14.9036 19.8315 13.5868 19.0061L13.5823 19.0038L13.5784 19.0008L6.75798 14.7218L6.75277 14.7191L6.74804 14.7156C6.42811 14.5045 6.20362 14.1765 6.12272 13.8019C6.04181 13.4273 6.11094 13.0359 6.31526 12.7117C6.51959 12.3874 6.84285 12.1562 7.21571 12.0675C7.58856 11.9788 7.98132 12.0398 8.30973 12.2374L10.8406 13.8247C10.8785 12.7967 11.1863 11.7969 11.733 10.9256C12.2797 10.0543 13.0462 9.34227 13.9553 8.86104C13.9692 8.85366 13.9832 8.84634 13.9972 8.83907ZM17.3867 16.9027C18.1366 16.7258 18.7866 16.2608 19.1961 15.6083C19.5032 15.1188 19.6587 14.5494 19.643 13.9718C19.6274 13.3941 19.4412 12.834 19.108 12.3619C18.7748 11.8898 18.3094 11.5268 17.7704 11.3185C17.2314 11.1101 16.6428 11.0659 16.0788 11.1912C15.5147 11.3166 15.0002 11.6059 14.6002 12.0229C14.2001 12.4399 13.9323 12.9659 13.8304 13.5347C13.7285 14.1035 13.797 14.6897 14.0275 15.2196C14.2579 15.7495 14.6399 16.1995 15.1254 16.5129L15.1569 16.5332L15.1896 16.5532C15.8476 16.9539 16.6369 17.0795 17.3867 16.9027Z" fill="#F5F5F7"/>
<path d="M12.4802 6.20612C12.2735 6.5338 11.9458 6.76656 11.5683 6.85373C11.1908 6.94089 10.7942 6.87539 10.4648 6.6715L10.4602 6.66862L10.4556 6.66574L8.08402 5.17784C7.92115 5.07524 7.7801 4.94157 7.6689 4.78446C7.55769 4.62735 7.47853 4.44988 7.43591 4.26217C7.34985 3.88308 7.41791 3.48533 7.62511 3.15642C7.83231 2.82751 8.16168 2.59438 8.54077 2.50832C8.72848 2.4657 8.92274 2.46048 9.11246 2.49294C9.30219 2.5254 9.48366 2.59492 9.64652 2.69751L12.0174 4.18494C12.1806 4.28715 12.3221 4.42054 12.4337 4.57748C12.5453 4.73442 12.6249 4.91183 12.6679 5.09956C12.7109 5.28729 12.7164 5.48166 12.6842 5.67153C12.652 5.86141 12.5826 6.04307 12.4802 6.20612Z" fill="#F5F5F7"/>
<path d="M7.83426 10.21C7.62778 10.539 7.29904 10.7726 6.92035 10.8593C6.54167 10.946 6.14405 10.8788 5.81495 10.6723L1.20467 7.77992C0.87432 7.57479 0.63899 7.24682 0.55045 6.86818C0.461909 6.48953 0.527411 6.09123 0.732545 5.76088C0.93768 5.43053 1.26564 5.1952 1.64429 5.10666C2.02293 5.01812 2.42124 5.08362 2.75159 5.28875L2.76445 5.29629L2.77683 5.30459L7.37487 8.18931C7.53775 8.2918 7.67884 8.42536 7.79009 8.58239C7.90133 8.73941 7.98054 8.91682 8.0232 9.10446C8.06586 9.29211 8.07114 9.48633 8.03872 9.67601C8.0063 9.8657 7.93682 10.0471 7.83426 10.21Z" fill="#F5F5F7"/>
</svg>
