<svg width="30" height="30" viewBox="0 0 30 30" fill="none" xmlns="http://www.w3.org/2000/svg">
<rect x="0.4" y="0.4" width="29.2" height="29.2" rx="8.6" stroke="#F5F5F7" stroke-opacity="0.2" stroke-width="0.8"/>
<path fill-rule="evenodd" clip-rule="evenodd" d="M16.9972 12.3752C16.9436 12.3203 16.8942 12.2611 16.8497 12.1981C16.7385 12.041 16.6593 11.8635 16.6167 11.6758C16.5306 11.2967 16.5987 10.899 16.8059 10.5701C17.0131 10.2412 17.3425 10.008 17.7216 9.92198C17.9093 9.87937 18.1035 9.87414 18.2932 9.9066C18.483 9.93907 18.6644 10.0086 18.8273 10.1112L22.6987 12.54C22.7193 12.5529 22.7395 12.5663 22.7594 12.5801C22.7767 12.5908 22.794 12.6015 22.8113 12.6123C24.1281 13.4377 25.063 14.7524 25.4105 16.2672C25.7579 17.782 25.4894 19.3727 24.664 20.6895C23.8385 22.0063 22.5238 22.9412 21.0091 23.2887C19.4943 23.6361 17.9036 23.3676 16.5868 22.5422L16.5823 22.5399L16.5784 22.5369L9.75798 18.2579L9.75277 18.2552L9.74804 18.2517C9.42811 18.0407 9.20362 17.7127 9.12272 17.338C9.04181 16.9634 9.11094 16.572 9.31526 16.2478C9.51959 15.9235 9.84285 15.6923 10.2157 15.6036C10.5886 15.515 10.9813 15.5759 11.3097 15.7735L13.8406 17.3608C13.8785 16.3329 14.1863 15.333 14.733 14.4617C15.2797 13.5904 16.0462 12.8784 16.9553 12.3972C16.9692 12.3898 16.9832 12.3825 16.9972 12.3752ZM20.3867 20.4388C21.1366 20.2619 21.7866 19.7969 22.1961 19.1444C22.5032 18.6549 22.6587 18.0855 22.643 17.5079C22.6274 16.9303 22.4412 16.3702 22.108 15.898C21.7748 15.4259 21.3094 15.0629 20.7704 14.8546C20.2314 14.6463 19.6428 14.602 19.0788 14.7273C18.5147 14.8527 18.0002 15.1421 17.6002 15.559C17.2001 15.976 16.9323 16.502 16.8304 17.0708C16.7285 17.6396 16.797 18.2258 17.0275 18.7557C17.2579 19.2857 17.6399 19.7356 18.1254 20.049L18.1569 20.0693L18.1896 20.0893C18.8476 20.4901 19.6369 20.6156 20.3867 20.4388Z" fill="#F5F5F7" fill-opacity="0.2"/>
<path d="M15.4802 9.74234C15.2735 10.07 14.9458 10.3028 14.5683 10.3899C14.1908 10.4771 13.7942 10.4116 13.4648 10.2077L13.4602 10.2048L13.4556 10.202L11.084 8.71405C10.9212 8.61146 10.7801 8.47779 10.6689 8.32068C10.5577 8.16357 10.4785 7.98609 10.4359 7.79839C10.3498 7.4193 10.4179 7.02155 10.6251 6.69264C10.8323 6.36373 11.1617 6.1306 11.5408 6.04453C11.7285 6.00192 11.9227 5.9967 12.1125 6.02916C12.3022 6.06162 12.4837 6.13113 12.6465 6.23373L15.0174 7.72115C15.1806 7.82336 15.3221 7.95675 15.4337 8.1137C15.5453 8.27064 15.6249 8.44805 15.6679 8.63578C15.7109 8.82351 15.7164 9.01787 15.6842 9.20775C15.652 9.39762 15.5826 9.57928 15.4802 9.74234Z" fill="#F5F5F7" fill-opacity="0.2"/>
<path d="M10.8343 13.7461C10.6278 14.0752 10.299 14.3087 9.92035 14.3955C9.54167 14.4822 9.14405 14.4149 8.81495 14.2085L4.20467 11.3161C3.87432 11.1109 3.63899 10.783 3.55045 10.4043C3.46191 10.0257 3.52741 9.62736 3.73255 9.29701C3.93768 8.96666 4.26564 8.73133 4.64429 8.64279C5.02293 8.55425 5.42124 8.61975 5.75159 8.82489L5.76445 8.83242L5.77683 8.84072L10.3749 11.7254C10.5378 11.8279 10.6788 11.9615 10.7901 12.1185C10.9013 12.2755 10.9805 12.4529 11.0232 12.6406C11.0659 12.8282 11.0711 13.0225 11.0387 13.2121C11.0063 13.4018 10.9368 13.5833 10.8343 13.7461Z" fill="#F5F5F7" fill-opacity="0.2"/>
</svg>
