<svg width="30" height="30" viewBox="0 0 30 30" fill="none" xmlns="http://www.w3.org/2000/svg">
<path fill-rule="evenodd" clip-rule="evenodd" d="M23.6086 10.6711C23.7282 10.2763 23.6086 10 23.0505 10H21.1904C20.712 10 20.4995 10.25 20.3799 10.5263C20.3799 10.5263 19.4365 12.8158 18.0945 14.2895C17.6561 14.7237 17.4701 14.8553 17.2309 14.8553C17.1113 14.8553 16.9386 14.7237 16.9386 14.3289V10.6711C16.9386 10.1974 16.8057 10 16.4071 10H13.484C13.1917 10 13.0057 10.2237 13.0057 10.4211C13.0057 10.8684 13.67 10.9737 13.7497 12.2105V14.9211C13.7497 15.5132 13.6434 15.6184 13.4043 15.6184C12.7798 15.6184 11.2385 13.3289 10.335 10.6974C10.149 10.2105 9.97626 10 9.49793 10H7.63777C7.10629 10 7 10.25 7 10.5263C7 11.0132 7.62448 13.4342 9.9364 16.6316C11.4777 18.8158 13.6434 20 15.6099 20C16.7924 20 16.9386 19.7368 16.9386 19.2895V17.6316C16.9386 17.1053 17.0449 17 17.4302 17C17.7092 17 18.1743 17.1316 19.2771 18.1842C20.5393 19.4342 20.7519 20 21.4561 20H23.3163C23.8478 20 24.1135 19.7368 23.954 19.2237C23.7813 18.7105 23.1834 17.9605 22.3862 17.0658C21.9477 16.5526 21.2967 16.0132 21.1107 15.7368C20.8316 15.3816 20.9114 15.2237 21.1107 14.9211C21.1107 14.9079 23.3827 11.75 23.6086 10.6711V10.6711Z" fill="#F5F5F7"/>
</svg>
