<?xml version="1.0" standalone="no"?>
<!DOCTYPE svg PUBLIC "-//W3C//DTD SVG 20010904//EN"
 "http://www.w3.org/TR/2001/REC-SVG-20010904/DTD/svg10.dtd">
<svg version="1.0" xmlns="http://www.w3.org/2000/svg"
 width="512.000000pt" height="512.000000pt" viewBox="0 0 512.000000 512.000000"
 preserveAspectRatio="xMidYMid meet">
<metadata>
Created by potrace 1.14, written by Peter Selinger 2001-2017
</metadata>
<g transform="translate(0.000000,512.000000) scale(0.100000,-0.100000)"
fill="#000000" stroke="none">
<path d="M1738 5115 c-1 -2 -68 -6 -148 -9 -146 -7 -193 -10 -285 -21 -27 -3
-70 -8 -95 -11 -25 -3 -52 -7 -60 -9 -8 -3 -31 -7 -51 -10 -30 -5 -174 -39
-204 -49 -85 -27 -214 -90 -293 -143 -72 -48 -240 -202 -296 -272 -147 -186
-241 -457 -272 -786 -3 -33 -7 -76 -9 -95 -15 -124 -20 -425 -20 -1160 0 -730
4 -985 20 -1145 18 -190 24 -229 46 -339 56 -272 150 -453 331 -638 188 -192
351 -283 622 -347 45 -11 104 -22 131 -26 28 -4 58 -9 67 -11 9 -1 48 -6 85
-10 37 -3 79 -8 93 -9 234 -28 2010 -28 2318 0 76 7 163 16 189 21 25 4 44 7
123 20 60 11 220 55 276 77 75 30 214 105 234 127 3 3 25 21 50 39 78 59 216
207 273 293 94 141 149 280 185 469 30 154 33 175 47 339 28 324 28 2142 1
2310 -3 14 -7 50 -10 81 -3 31 -10 85 -15 120 -5 35 -13 84 -16 109 -4 24 -8
47 -10 51 -2 3 -6 19 -9 35 -25 137 -125 351 -222 475 -49 61 -218 219 -285
266 -112 77 -303 160 -413 179 -17 3 -58 11 -91 18 -33 8 -89 17 -125 21 -36
4 -72 9 -80 10 -9 2 -60 6 -115 10 -55 5 -118 10 -140 12 -46 5 -1822 13
-1827 8z"/>
</g>
</svg>
